<?xml version="1.0" encoding="UTF-8" standalone="no"?>
<!-- Created with Inkscape (http://www.inkscape.org/) -->

<svg
   width="256"
   height="256"
   viewBox="0 0 67.733332 67.733333"
   version="1.1"
   id="svg5"
   xml:space="preserve"
   inkscape:version="1.2.1 (9c6d41e410, 2022-07-14)"
   sodipodi:docname="darkmode.svg"
   xmlns:inkscape="http://www.inkscape.org/namespaces/inkscape"
   xmlns:sodipodi="http://sodipodi.sourceforge.net/DTD/sodipodi-0.dtd"
   xmlns="http://www.w3.org/2000/svg"
   xmlns:svg="http://www.w3.org/2000/svg"><sodipodi:namedview
     id="namedview7"
     pagecolor="#505050"
     bordercolor="#eeeeee"
     borderopacity="1"
     inkscape:showpageshadow="0"
     inkscape:pageopacity="0"
     inkscape:pagecheckerboard="0"
     inkscape:deskcolor="#505050"
     inkscape:document-units="mm"
     showgrid="false"
     inkscape:zoom="0.67402315"
     inkscape:cx="-186.9372"
     inkscape:cy="17.803543"
     inkscape:window-width="1360"
     inkscape:window-height="715"
     inkscape:window-x="-8"
     inkscape:window-y="-8"
     inkscape:window-maximized="1"
     inkscape:current-layer="layer1" /><defs
     id="defs2" /><g
     inkscape:label="Layer 1"
     inkscape:groupmode="layer"
     id="layer1"><path
       id="path234"
       style="opacity:1;fill:#000000;stroke:none;stroke-width:0;stroke-dasharray:none;stroke-opacity:1;paint-order:stroke fill markers"
       d="m 33.866665,14.333795 c -10.787701,1.3e-5 -19.532857,8.74517 -19.532871,19.532873 1.4e-5,10.787701 8.745171,19.532858 19.532871,19.532871 10.787701,-1.3e-5 19.532857,-8.74517 19.53287,-19.532871 -1.3e-5,-10.787702 -8.745169,-19.53286 -19.53287,-19.532873 z m 0,2.858709 c 9.208976,-2.18e-4 16.674379,7.465187 16.674162,16.674164 -0.973606,9.589107 -7.221711,16.409292 -16.674162,16.674163 -9.208976,2.17e-4 -16.67438,-7.465186 -16.674162,-16.674163 -2.18e-4,-9.208977 7.465186,-16.674382 16.674162,-16.674164 z"
       sodipodi:nodetypes="cccccccccc" /><rect
       style="stroke-width:1.00139741;stroke-dasharray:none;opacity:1;paint-order:stroke fill markers;fill:#000000"
       id="rect399"
       width="3.0782855"
       height="8.4985046"
       x="32.327522"
       y="2.752913"
       rx="0.78787661"
       ry="1.3907624"
       transform="matrix(1.0884789,0,0,1.088479,-2.9964872,-2.996488)" /><path
       id="path236"
       style="fill:#000000;stroke:#000000;stroke-width:0.997599"
       d="M 30.151002,20.476162 A 13.92845,13.92845 0 0 0 20.544448,33.710299 13.92845,13.92845 0 0 0 34.47282,47.63867 13.92845,13.92845 0 0 0 46.610262,40.532446 13.850015,13.850015 0 0 1 42.121394,41.289834 13.850015,13.850015 0 0 1 28.271342,27.440008 a 13.850015,13.850015 0 0 1 1.87966,-6.963846 z" /><rect
       style="opacity:1;fill:#000000;stroke-width:1.23563;stroke-dasharray:none;paint-order:stroke fill markers"
       id="rect7613"
       width="3.3506489"
       height="11.88736"
       x="32.191338"
       y="-1.2632847e-08"
       rx="0.85758704"
       ry="1.9453415" /><rect
       style="opacity:1;fill:#000000;stroke-width:1.23563;stroke-dasharray:none;paint-order:stroke fill markers"
       id="rect8361"
       width="3.3506489"
       height="11.88736"
       x="32.191341"
       y="55.845974"
       rx="0.85758704"
       ry="1.9453415" /><rect
       style="opacity:1;fill:#000000;stroke-width:1.23563;stroke-dasharray:none;paint-order:stroke fill markers"
       id="rect8363"
       width="3.3506489"
       height="11.88736"
       x="32.191341"
       y="-67.73333"
       rx="0.85758704"
       ry="1.9453415"
       transform="rotate(90)" /><rect
       style="opacity:1;fill:#000000;stroke-width:1.23563;stroke-dasharray:none;paint-order:stroke fill markers"
       id="rect8365"
       width="3.3506489"
       height="11.88736"
       x="32.191345"
       y="-11.887357"
       rx="0.85758704"
       ry="1.9453415"
       transform="rotate(90)" /><rect
       style="opacity:1;fill:#000000;stroke-width:1.23563;stroke-dasharray:none;paint-order:stroke fill markers"
       id="rect8367"
       width="3.3506489"
       height="11.88736"
       x="46.219372"
       y="-33.866665"
       rx="0.85758704"
       ry="1.9453415"
       transform="rotate(45)" /><rect
       style="opacity:1;fill:#000000;stroke-width:1.23563;stroke-dasharray:none;paint-order:stroke fill markers"
       id="rect8369"
       width="3.3506489"
       height="11.88736"
       x="46.219376"
       y="21.979309"
       rx="0.85758704"
       ry="1.9453415"
       transform="rotate(45)" /><rect
       style="opacity:1;fill:#000000;stroke-width:1.23563;stroke-dasharray:none;paint-order:stroke fill markers"
       id="rect8371"
       width="3.3506489"
       height="11.88736"
       x="-1.675323"
       y="-81.76136"
       rx="0.85758704"
       ry="1.9453415"
       transform="rotate(135)" /><rect
       style="opacity:1;fill:#000000;stroke-width:1.23563;stroke-dasharray:none;paint-order:stroke fill markers"
       id="rect8373"
       width="3.3506489"
       height="11.88736"
       x="-1.6753192"
       y="-25.91539"
       rx="0.85758704"
       ry="1.9453415"
       transform="rotate(135)" /></g></svg>
